<svg width="9" height="10" viewBox="0 0 9 10" fill="none" xmlns="http://www.w3.org/2000/svg">
<g clip-path="url(#clip0_206_609)">
<path d="M2.0245 3.67561C1.78664 3.81587 1.70752 4.12241 1.84779 4.36027L4.1336 8.2365C4.27386 8.47436 4.5804 8.55348 4.81827 8.41321C5.05613 8.27294 5.13525 7.9664 4.99498 7.72854L2.96315 4.28301L6.40868 2.25118C6.64655 2.11091 6.72566 1.80437 6.5854 1.56651C6.44513 1.32865 6.13859 1.24953 5.90073 1.3898L2.0245 3.67561ZM2.15353 4.59043C43.1716 15.1772 80.3768 15.1692 106.445 1.90159C119.49 -4.73809 129.739 -14.6961 136.262 -28.2866C142.783 -41.8716 145.567 -59.0553 143.742 -80.1312L142.746 -80.045C144.56 -59.0993 141.786 -42.1043 135.361 -28.7193C128.938 -15.3399 118.854 -5.53666 105.991 1.01039C80.2411 14.1162 43.3243 14.1838 2.40344 3.62216L2.15353 4.59043Z" fill="white"/>
</g>
<defs>
<clipPath id="clip0_206_609">
<rect width="8" height="9" fill="white" transform="translate(0.506836) rotate(3.22863)"/>
</clipPath>
</defs>
</svg>
