<svg width="213" height="24" viewBox="0 0 213 24" fill="none" xmlns="http://www.w3.org/2000/svg">
<path d="M15.2734 8.39844H12.3516C12.2682 7.91927 12.1146 7.49479 11.8906 7.125C11.6667 6.75 11.388 6.43229 11.0547 6.17187C10.7214 5.91146 10.3411 5.71615 9.91406 5.58594C9.49219 5.45052 9.03646 5.38281 8.54688 5.38281C7.67708 5.38281 6.90625 5.60156 6.23438 6.03906C5.5625 6.47135 5.03646 7.10677 4.65625 7.94531C4.27604 8.77865 4.08594 9.79687 4.08594 11C4.08594 12.224 4.27604 13.2552 4.65625 14.0937C5.04167 14.9271 5.56771 15.5573 6.23438 15.9844C6.90625 16.4062 7.67448 16.6172 8.53906 16.6172C9.01823 16.6172 9.46615 16.5547 9.88281 16.4297C10.3047 16.2995 10.6823 16.1094 11.0156 15.8594C11.3542 15.6094 11.638 15.3021 11.8672 14.9375C12.1016 14.5729 12.263 14.1562 12.3516 13.6875L15.2734 13.7031C15.1641 14.4635 14.9271 15.1771 14.5625 15.8438C14.2031 16.5104 13.7318 17.099 13.1484 17.6094C12.5651 18.1146 11.8828 18.5104 11.1016 18.7969C10.3203 19.0781 9.45313 19.2187 8.5 19.2187C7.09375 19.2187 5.83854 18.8932 4.73438 18.2422C3.63021 17.5911 2.76042 16.651 2.125 15.4219C1.48958 14.1927 1.17188 12.7187 1.17188 11C1.17188 9.27604 1.49219 7.80208 2.13281 6.57812C2.77344 5.34896 3.64583 4.40885 4.75 3.75781C5.85417 3.10677 7.10417 2.78125 8.5 2.78125C9.39063 2.78125 10.2188 2.90625 10.9844 3.15625C11.75 3.40625 12.4323 3.77344 13.0313 4.25781C13.6302 4.73698 14.1224 5.32552 14.5078 6.02344C14.8984 6.71615 15.1536 7.50781 15.2734 8.39844ZM24.489 15.7109L28.0515 7H30.3327L25.4812 19H23.5046L18.7624 7H21.0202L24.489 15.7109ZM20.3093 7V19H17.5827V7H20.3093ZM28.7859 19V7H31.489V19H28.7859ZM39.3549 19.2344C38.183 19.2344 37.1674 18.9766 36.308 18.4609C35.4487 17.9453 34.782 17.224 34.308 16.2969C33.8393 15.3698 33.6049 14.2865 33.6049 13.0469C33.6049 11.8073 33.8393 10.7214 34.308 9.78906C34.782 8.85677 35.4487 8.13281 36.308 7.61719C37.1674 7.10156 38.183 6.84375 39.3549 6.84375C40.5268 6.84375 41.5424 7.10156 42.4018 7.61719C43.2612 8.13281 43.9252 8.85677 44.394 9.78906C44.8679 10.7214 45.1049 11.8073 45.1049 13.0469C45.1049 14.2865 44.8679 15.3698 44.394 16.2969C43.9252 17.224 43.2612 17.9453 42.4018 18.4609C41.5424 18.9766 40.5268 19.2344 39.3549 19.2344ZM39.3705 16.9687C40.006 16.9687 40.5372 16.7943 40.9643 16.4453C41.3914 16.0911 41.7091 15.6172 41.9174 15.0234C42.131 14.4297 42.2377 13.7682 42.2377 13.0391C42.2377 12.3047 42.131 11.6406 41.9174 11.0469C41.7091 10.4479 41.3914 9.97135 40.9643 9.61719C40.5372 9.26302 40.006 9.08594 39.3705 9.08594C38.7195 9.08594 38.1778 9.26302 37.7455 9.61719C37.3185 9.97135 36.9982 10.4479 36.7846 11.0469C36.5763 11.6406 36.4721 12.3047 36.4721 13.0391C36.4721 13.7682 36.5763 14.4297 36.7846 15.0234C36.9982 15.6172 37.3185 16.0911 37.7455 16.4453C38.1778 16.7943 38.7195 16.9687 39.3705 16.9687ZM45.963 9.32031V7H56.463V9.32031H52.5802V19H49.8459V9.32031H45.963ZM58.495 23.5V7H61.2762V8.98437H61.4403C61.5861 8.69271 61.7919 8.38281 62.0575 8.05469C62.3231 7.72135 62.6825 7.4375 63.1356 7.20312C63.5887 6.96354 64.1669 6.84375 64.87 6.84375C65.7971 6.84375 66.633 7.08073 67.3778 7.55469C68.1278 8.02344 68.7216 8.71875 69.1591 9.64062C69.6018 10.5573 69.8231 11.6823 69.8231 13.0156C69.8231 14.3333 69.607 15.4531 69.1747 16.375C68.7424 17.2969 68.1539 18 67.4091 18.4844C66.6643 18.9688 65.8205 19.2109 64.8778 19.2109C64.1903 19.2109 63.62 19.0964 63.1669 18.8672C62.7137 18.638 62.3492 18.362 62.0731 18.0391C61.8023 17.7109 61.5914 17.401 61.4403 17.1094H61.3231V23.5H58.495ZM61.2684 13C61.2684 13.776 61.3778 14.4557 61.5966 15.0391C61.8205 15.6224 62.1408 16.0781 62.5575 16.4062C62.9794 16.7292 63.4898 16.8906 64.0887 16.8906C64.7137 16.8906 65.2372 16.724 65.6591 16.3906C66.0809 16.0521 66.3986 15.5911 66.6122 15.0078C66.8309 14.4193 66.9403 13.75 66.9403 13C66.9403 12.2552 66.8335 11.5937 66.62 11.0156C66.4065 10.4375 66.0887 9.98437 65.6669 9.65625C65.245 9.32812 64.719 9.16406 64.0887 9.16406C63.4846 9.16406 62.9716 9.32292 62.5497 9.64062C62.1278 9.95833 61.8075 10.4036 61.5887 10.9766C61.3752 11.5495 61.2684 12.224 61.2684 13ZM77.3375 19.2344C76.1344 19.2344 75.0953 18.9844 74.2203 18.4844C73.3505 17.9792 72.6813 17.2656 72.2125 16.3437C71.7438 15.4167 71.5094 14.3255 71.5094 13.0703C71.5094 11.8359 71.7438 10.7526 72.2125 9.82031C72.6865 8.88281 73.3479 8.15365 74.1969 7.63281C75.0458 7.10677 76.0432 6.84375 77.1891 6.84375C77.9286 6.84375 78.6266 6.96354 79.2828 7.20312C79.9443 7.4375 80.5276 7.80208 81.0328 8.29687C81.5432 8.79167 81.9443 9.42187 82.2359 10.1875C82.5276 10.9479 82.6734 11.8542 82.6734 12.9062V13.7734H72.8375V11.8672H79.9625C79.9573 11.3255 79.8401 10.8437 79.6109 10.4219C79.3818 9.99479 79.0615 9.65885 78.65 9.41406C78.2438 9.16927 77.7698 9.04687 77.2281 9.04687C76.65 9.04687 76.1422 9.1875 75.7047 9.46875C75.2672 9.74479 74.926 10.1094 74.6813 10.5625C74.4417 11.0104 74.3193 11.5026 74.3141 12.0391V13.7031C74.3141 14.401 74.4417 15 74.6969 15.5C74.9521 15.9948 75.3089 16.375 75.7672 16.6406C76.2255 16.901 76.762 17.0312 77.3766 17.0312C77.788 17.0312 78.1604 16.974 78.4938 16.8594C78.8271 16.7396 79.1161 16.5651 79.3609 16.3359C79.6057 16.1068 79.7906 15.8229 79.9156 15.4844L82.5563 15.7812C82.3896 16.4792 82.0719 17.0885 81.6031 17.6094C81.1396 18.125 80.5458 18.526 79.8219 18.8125C79.0979 19.0937 78.2698 19.2344 77.3375 19.2344ZM83.846 9.32031V7H94.346V9.32031H90.4632V19H87.7288V9.32031H83.846ZM98.292 10.9062H101.831C103.362 10.9062 104.547 11.2786 105.386 12.0234C106.224 12.7682 106.646 13.7448 106.651 14.9531C106.646 15.7396 106.453 16.4375 106.073 17.0469C105.698 17.6562 105.151 18.1354 104.433 18.4844C103.719 18.8281 102.852 19 101.831 19H96.378V7H99.1045V16.6797H101.831C102.446 16.6797 102.951 16.5234 103.347 16.2109C103.743 15.8932 103.94 15.487 103.94 14.9922C103.94 14.4714 103.743 14.0469 103.347 13.7187C102.951 13.3906 102.446 13.2266 101.831 13.2266H98.292V10.9062ZM113.264 19L113.249 16.6719H113.663C113.975 16.6719 114.238 16.6016 114.452 16.4609C114.665 16.3203 114.842 16.0859 114.983 15.7578C115.124 15.4245 115.233 14.9766 115.311 14.4141C115.389 13.8516 115.444 13.151 115.475 12.3125L115.686 7H124.436V19H121.702V9.32031H118.256L118.069 13.1875C118.022 14.1875 117.91 15.0547 117.733 15.7891C117.561 16.5182 117.316 17.1198 116.999 17.5938C116.686 18.0677 116.293 18.4219 115.819 18.6562C115.345 18.8854 114.785 19 114.139 19H113.264ZM133.4 11.9141V14.2422H126.939V11.9141H133.4ZM129.181 7V19H126.345V7H129.181ZM137.025 19.2344C135.868 19.2344 134.866 18.9714 134.017 18.4453C133.173 17.9193 132.519 17.1901 132.056 16.2578C131.592 15.3255 131.361 14.2474 131.361 13.0234C131.361 11.7995 131.592 10.724 132.056 9.79687C132.519 8.86979 133.173 8.14583 134.017 7.625C134.866 7.10417 135.868 6.84375 137.025 6.84375C138.176 6.84375 139.173 7.10417 140.017 7.625C140.866 8.14583 141.522 8.86979 141.986 9.79687C142.454 10.724 142.689 11.7995 142.689 13.0234C142.689 14.2474 142.454 15.3255 141.986 16.2578C141.522 17.1901 140.866 17.9193 140.017 18.4453C139.173 18.9714 138.176 19.2344 137.025 19.2344ZM137.025 16.8906C137.707 16.8906 138.264 16.7187 138.696 16.375C139.129 16.0312 139.446 15.5677 139.65 14.9844C139.853 14.401 139.954 13.7474 139.954 13.0234C139.954 12.2995 139.853 11.6458 139.65 11.0625C139.446 10.4792 139.129 10.0182 138.696 9.67969C138.264 9.33594 137.707 9.16406 137.025 9.16406C136.337 9.16406 135.775 9.33594 135.337 9.67969C134.905 10.0182 134.587 10.4792 134.384 11.0625C134.181 11.6458 134.079 12.2995 134.079 13.0234C134.079 13.7526 134.181 14.4089 134.384 14.9922C134.587 15.5755 134.905 16.0391 135.337 16.3828C135.775 16.7214 136.337 16.8906 137.025 16.8906ZM154.594 2.5625L155.578 4.39062C155.229 4.69271 154.838 4.91146 154.406 5.04687C153.974 5.18229 153.466 5.27083 152.883 5.3125C152.305 5.34896 151.617 5.375 150.82 5.39062C149.924 5.41146 149.193 5.58073 148.625 5.89844C148.057 6.21615 147.622 6.69792 147.32 7.34375C147.018 7.98437 146.82 8.80208 146.726 9.79687H146.859C147.234 9.0625 147.76 8.5026 148.437 8.11719C149.115 7.73177 149.909 7.53906 150.82 7.53906C151.815 7.53906 152.693 7.76302 153.453 8.21094C154.219 8.65365 154.815 9.29687 155.242 10.1406C155.674 10.9844 155.891 12.0052 155.891 13.2031C155.891 14.4375 155.659 15.5078 155.195 16.4141C154.732 17.3151 154.073 18.0104 153.219 18.5C152.37 18.9896 151.362 19.2344 150.195 19.2344C149.034 19.2344 148.023 18.9818 147.164 18.4766C146.31 17.9661 145.648 17.2135 145.18 16.2188C144.716 15.2187 144.484 13.987 144.484 12.5234V11.4453C144.484 8.6224 145.01 6.51562 146.062 5.125C147.115 3.73437 148.674 3.02604 150.742 3C151.357 2.98958 151.906 2.98698 152.391 2.99219C152.88 2.9974 153.307 2.97396 153.672 2.92187C154.036 2.86979 154.344 2.75 154.594 2.5625ZM150.211 16.9687C150.789 16.9687 151.289 16.8203 151.711 16.5234C152.133 16.2214 152.456 15.7943 152.68 15.2422C152.909 14.6901 153.023 14.0365 153.023 13.2812C153.023 12.5365 152.909 11.9036 152.68 11.3828C152.45 10.8568 152.125 10.4557 151.703 10.1797C151.281 9.90365 150.779 9.76562 150.195 9.76562C149.758 9.76562 149.365 9.84375 149.016 10C148.667 10.1562 148.37 10.3854 148.125 10.6875C147.88 10.9896 147.693 11.3568 147.562 11.7891C147.432 12.2214 147.362 12.7187 147.351 13.2812C147.351 14.4115 147.607 15.3099 148.117 15.9766C148.628 16.638 149.325 16.9687 150.211 16.9687ZM160.803 15.1719L165.608 7H168.514V19H165.78V10.8203L160.991 19H158.077V7H160.803V15.1719ZM178.105 15.7109L181.667 7H183.949L179.097 19H177.12L172.378 7H174.636L178.105 15.7109ZM173.925 7V19H171.199V7H173.925ZM182.402 19V7H185.105V19H182.402ZM192.971 19.2344C191.799 19.2344 190.783 18.9766 189.924 18.4609C189.065 17.9453 188.398 17.224 187.924 16.2969C187.455 15.3698 187.221 14.2865 187.221 13.0469C187.221 11.8073 187.455 10.7214 187.924 9.78906C188.398 8.85677 189.065 8.13281 189.924 7.61719C190.783 7.10156 191.799 6.84375 192.971 6.84375C194.143 6.84375 195.158 7.10156 196.018 7.61719C196.877 8.13281 197.541 8.85677 198.01 9.78906C198.484 10.7214 198.721 11.8073 198.721 13.0469C198.721 14.2865 198.484 15.3698 198.01 16.2969C197.541 17.224 196.877 17.9453 196.018 18.4609C195.158 18.9766 194.143 19.2344 192.971 19.2344ZM192.986 16.9687C193.622 16.9687 194.153 16.7943 194.58 16.4453C195.007 16.0911 195.325 15.6172 195.533 15.0234C195.747 14.4297 195.854 13.7682 195.854 13.0391C195.854 12.3047 195.747 11.6406 195.533 11.0469C195.325 10.4479 195.007 9.97135 194.58 9.61719C194.153 9.26302 193.622 9.08594 192.986 9.08594C192.335 9.08594 191.794 9.26302 191.361 9.61719C190.934 9.97135 190.614 10.4479 190.4 11.0469C190.192 11.6406 190.088 12.3047 190.088 13.0391C190.088 13.7682 190.192 14.4297 190.4 15.0234C190.614 15.6172 190.934 16.0911 191.361 16.4453C191.794 16.7943 192.335 16.9687 192.986 16.9687ZM206.214 19.2344C205.011 19.2344 203.971 18.9844 203.096 18.4844C202.227 17.9792 201.557 17.2656 201.089 16.3437C200.62 15.4167 200.386 14.3255 200.386 13.0703C200.386 11.8359 200.62 10.7526 201.089 9.82031C201.563 8.88281 202.224 8.15365 203.073 7.63281C203.922 7.10677 204.919 6.84375 206.065 6.84375C206.805 6.84375 207.503 6.96354 208.159 7.20312C208.82 7.4375 209.404 7.80208 209.909 8.29687C210.419 8.79167 210.82 9.42187 211.112 10.1875C211.404 10.9479 211.55 11.8542 211.55 12.9062V13.7734H201.714V11.8672H208.839C208.833 11.3255 208.716 10.8437 208.487 10.4219C208.258 9.99479 207.938 9.65885 207.526 9.41406C207.12 9.16927 206.646 9.04687 206.104 9.04687C205.526 9.04687 205.018 9.1875 204.581 9.46875C204.143 9.74479 203.802 10.1094 203.557 10.5625C203.318 11.0104 203.195 11.5026 203.19 12.0391V13.7031C203.19 14.401 203.318 15 203.573 15.5C203.828 15.9948 204.185 16.375 204.643 16.6406C205.102 16.901 205.638 17.0312 206.253 17.0312C206.664 17.0312 207.037 16.974 207.37 16.8594C207.703 16.7396 207.992 16.5651 208.237 16.3359C208.482 16.1068 208.667 15.8229 208.792 15.4844L211.432 15.7812C211.266 16.4792 210.948 17.0885 210.479 17.6094C210.016 18.125 209.422 18.526 208.698 18.8125C207.974 19.0937 207.146 19.2344 206.214 19.2344Z" fill="#111111"/>
</svg>
