<svg width="602" height="50" viewBox="0 0 602 50" fill="none" xmlns="http://www.w3.org/2000/svg">
<path d="M0.730114 39V1.18182H15.2074C17.9403 1.18182 20.2116 1.61269 22.0213 2.47443C23.8433 3.32386 25.2036 4.48722 26.1023 5.96449C27.0133 7.44176 27.4688 9.116 27.4688 10.9872C27.4688 12.526 27.1733 13.8433 26.5824 14.9389C25.9915 16.0223 25.1974 16.9025 24.2003 17.5795C23.2031 18.2566 22.089 18.7429 20.858 19.0384V19.4077C22.1998 19.4815 23.4863 19.8939 24.7173 20.6449C25.9607 21.3835 26.9763 22.4299 27.7642 23.7841C28.5521 25.1383 28.946 26.7756 28.946 28.696C28.946 30.6534 28.4721 32.4138 27.5241 33.9773C26.5762 35.5284 25.1482 36.7533 23.2401 37.652C21.3319 38.5507 18.9313 39 16.0384 39H0.730114ZM7.58097 33.2756H14.9489C17.4356 33.2756 19.2268 32.8016 20.3224 31.8537C21.4304 30.8935 21.9844 29.6624 21.9844 28.1605C21.9844 27.0402 21.7074 26.0308 21.1534 25.1321C20.5994 24.2211 19.8116 23.5071 18.7898 22.9901C17.768 22.4607 16.5492 22.196 15.1335 22.196H7.58097V33.2756ZM7.58097 17.2656H14.358C15.5398 17.2656 16.6046 17.0502 17.5526 16.6193C18.5005 16.1761 19.2453 15.5544 19.7869 14.7543C20.3409 13.9418 20.6179 12.9815 20.6179 11.8736C20.6179 10.4086 20.1009 9.20218 19.0668 8.25426C18.045 7.30634 16.5246 6.83238 14.5057 6.83238H7.58097V17.2656ZM46.4626 39.554C43.6312 39.554 41.1998 38.9323 39.1686 37.6889C37.1496 36.4455 35.5923 34.7282 34.4967 32.5369C33.4134 30.3333 32.8717 27.7973 32.8717 24.929C32.8717 22.0483 33.4257 19.5062 34.5336 17.3026C35.6416 15.0866 37.205 13.3632 39.224 12.1321C41.2552 10.8887 43.6558 10.267 46.4257 10.267C48.7278 10.267 50.7652 10.6918 52.5379 11.5412C54.3229 12.3783 55.7448 13.5663 56.8035 15.1051C57.8622 16.6316 58.4654 18.4167 58.6132 20.4602H52.224C51.9654 19.0937 51.3499 17.955 50.3774 17.044C49.4171 16.1207 48.1307 15.6591 46.518 15.6591C45.1515 15.6591 43.9512 16.0284 42.9171 16.767C41.8831 17.4934 41.0767 18.5398 40.4981 19.9062C39.9318 21.2727 39.6487 22.91 39.6487 24.8182C39.6487 26.7509 39.9318 28.4129 40.4981 29.804C41.0644 31.1828 41.8584 32.2476 42.8802 32.9986C43.9143 33.7372 45.1269 34.1065 46.518 34.1065C47.5028 34.1065 48.3831 33.9219 49.1586 33.5526C49.9465 33.1709 50.6051 32.6231 51.1345 31.9091C51.6638 31.1951 52.027 30.3272 52.224 29.3054H58.6132C58.4531 31.312 57.8622 33.0909 56.8404 34.642C55.8187 36.1809 54.4276 37.3873 52.6671 38.2614C50.9067 39.1231 48.8385 39.554 46.4626 39.554ZM61.5232 16.1207V10.6364H86.3414V16.1207H77.1638V39H70.7008V16.1207H61.5232ZM91.1442 49.6364V10.6364H97.7181V15.3267H98.1058C98.4505 14.6373 98.9368 13.9048 99.5646 13.1293C100.192 12.3414 101.042 11.6705 102.113 11.1165C103.184 10.5502 104.55 10.267 106.212 10.267C108.404 10.267 110.38 10.8272 112.14 11.9474C113.913 13.0554 115.316 14.6989 116.35 16.8778C117.397 19.0445 117.92 21.7036 117.92 24.8551C117.92 27.9697 117.409 30.6165 116.387 32.7955C115.365 34.9744 113.974 36.6364 112.214 37.7812C110.453 38.9261 108.459 39.4986 106.231 39.4986C104.606 39.4986 103.258 39.2277 102.187 38.6861C101.116 38.1444 100.254 37.492 99.6016 36.7287C98.9614 35.9531 98.4628 35.2206 98.1058 34.5312H97.8289V49.6364H91.1442ZM97.6996 24.8182C97.6996 26.6525 97.9581 28.259 98.4752 29.6378C99.0045 31.0166 99.7616 32.0937 100.746 32.8693C101.744 33.6326 102.95 34.0142 104.366 34.0142C105.843 34.0142 107.08 33.6203 108.077 32.8324C109.075 32.0322 109.826 30.9427 110.33 29.5639C110.847 28.1728 111.106 26.5909 111.106 24.8182C111.106 23.0578 110.853 21.4943 110.349 20.1278C109.844 18.7614 109.093 17.6903 108.096 16.9148C107.099 16.1392 105.855 15.7514 104.366 15.7514C102.938 15.7514 101.725 16.1269 100.728 16.8778C99.7308 17.6288 98.9737 18.6813 98.4567 20.0355C97.952 21.3897 97.6996 22.9839 97.6996 24.8182ZM135.681 39.554C132.837 39.554 130.381 38.9631 128.313 37.7812C126.257 36.5871 124.675 34.9006 123.567 32.7216C122.459 30.5303 121.905 27.9512 121.905 24.9844C121.905 22.0668 122.459 19.5062 123.567 17.3026C124.688 15.0866 126.251 13.3632 128.258 12.1321C130.264 10.8887 132.622 10.267 135.33 10.267C137.078 10.267 138.728 10.5502 140.279 11.1165C141.842 11.6705 143.221 12.5322 144.415 13.7017C145.622 14.8712 146.57 16.3608 147.259 18.1705C147.949 19.9678 148.293 22.1098 148.293 24.5966V26.6463H125.045V22.1406H141.886C141.873 20.8603 141.596 19.7216 141.055 18.7244C140.513 17.715 139.756 16.9209 138.783 16.3423C137.823 15.7637 136.703 15.4744 135.422 15.4744C134.056 15.4744 132.856 15.8068 131.822 16.4716C130.788 17.1241 129.981 17.9858 129.403 19.0568C128.836 20.1155 128.547 21.2789 128.535 22.5469V26.4801C128.535 28.1297 128.836 29.5455 129.44 30.7273C130.043 31.8968 130.886 32.7955 131.969 33.4233C133.053 34.0388 134.321 34.3466 135.773 34.3466C136.746 34.3466 137.626 34.2112 138.414 33.9403C139.202 33.6572 139.885 33.2448 140.464 32.7031C141.042 32.1615 141.479 31.4905 141.775 30.6903L148.016 31.392C147.622 33.0417 146.871 34.482 145.763 35.7131C144.668 36.9318 143.264 37.8797 141.553 38.5568C139.842 39.2216 137.885 39.554 135.681 39.554ZM177.12 10.6364V39H170.694V10.6364H177.12ZM174.11 23.4517V28.9176C173.384 29.2377 172.559 29.527 171.636 29.7855C170.725 30.0317 169.758 30.2287 168.737 30.3764C167.727 30.5241 166.718 30.598 165.708 30.598C161.917 30.598 158.919 29.7486 156.715 28.0497C154.524 26.3385 153.428 23.6733 153.428 20.054V10.5994H159.818V20.054C159.818 21.2727 160.033 22.2514 160.464 22.9901C160.895 23.7287 161.547 24.2704 162.421 24.6151C163.295 24.9474 164.391 25.1136 165.708 25.1136C167.186 25.1136 168.589 24.9659 169.918 24.6705C171.248 24.375 172.645 23.9688 174.11 23.4517ZM191.488 39.5724C189.691 39.5724 188.072 39.2524 186.632 38.6122C185.204 37.9598 184.071 36.9995 183.234 35.7315C182.409 34.4635 181.997 32.9001 181.997 31.0412C181.997 29.4408 182.292 28.1174 182.883 27.071C183.474 26.0246 184.28 25.1875 185.302 24.5597C186.324 23.9318 187.475 23.4579 188.755 23.1378C190.048 22.8054 191.384 22.5653 192.762 22.4176C194.424 22.2453 195.772 22.0914 196.806 21.956C197.841 21.8082 198.592 21.5866 199.059 21.2912C199.539 20.9834 199.78 20.5095 199.78 19.8693V19.7585C199.78 18.3674 199.367 17.2902 198.542 16.527C197.717 15.7637 196.53 15.3821 194.978 15.3821C193.341 15.3821 192.042 15.7391 191.082 16.4531C190.134 17.1671 189.494 18.0104 189.162 18.983L182.92 18.0966C183.413 16.3731 184.225 14.9328 185.358 13.7756C186.49 12.6061 187.875 11.732 189.512 11.1534C191.15 10.5625 192.959 10.267 194.941 10.267C196.308 10.267 197.668 10.4271 199.022 10.7472C200.377 11.0672 201.614 11.5966 202.734 12.3352C203.854 13.0616 204.753 14.0526 205.43 15.3082C206.119 16.5639 206.464 18.1335 206.464 20.017V39H200.038V35.1037H199.816C199.41 35.8916 198.838 36.6302 198.099 37.3196C197.373 37.9967 196.456 38.5445 195.348 38.9631C194.252 39.3693 192.966 39.5724 191.488 39.5724ZM193.224 34.6605C194.566 34.6605 195.729 34.3958 196.714 33.8665C197.699 33.3248 198.456 32.6108 198.985 31.7244C199.527 30.8381 199.798 29.8717 199.798 28.8253V25.483C199.589 25.6553 199.232 25.8153 198.727 25.9631C198.235 26.1108 197.681 26.2401 197.065 26.3509C196.449 26.4616 195.84 26.5601 195.237 26.6463C194.634 26.7325 194.11 26.8063 193.667 26.8679C192.67 27.0033 191.778 27.2249 190.99 27.5327C190.202 27.8404 189.58 28.2713 189.125 28.8253C188.669 29.367 188.441 30.0687 188.441 30.9304C188.441 32.1615 188.891 33.0909 189.789 33.7188C190.688 34.3466 191.833 34.6605 193.224 34.6605ZM225.223 39.554C222.379 39.554 219.923 38.9631 217.855 37.7812C215.799 36.5871 214.217 34.9006 213.109 32.7216C212.001 30.5303 211.447 27.9512 211.447 24.9844C211.447 22.0668 212.001 19.5062 213.109 17.3026C214.229 15.0866 215.793 13.3632 217.799 12.1321C219.806 10.8887 222.163 10.267 224.872 10.267C226.62 10.267 228.269 10.5502 229.821 11.1165C231.384 11.6705 232.763 12.5322 233.957 13.7017C235.163 14.8712 236.111 16.3608 236.801 18.1705C237.49 19.9678 237.835 22.1098 237.835 24.5966V26.6463H214.586V22.1406H231.427C231.415 20.8603 231.138 19.7216 230.596 18.7244C230.054 17.715 229.297 16.9209 228.325 16.3423C227.365 15.7637 226.244 15.4744 224.964 15.4744C223.598 15.4744 222.397 15.8068 221.363 16.4716C220.329 17.1241 219.523 17.9858 218.944 19.0568C218.378 20.1155 218.089 21.2789 218.076 22.5469V26.4801C218.076 28.1297 218.378 29.5455 218.981 30.7273C219.584 31.8968 220.428 32.7955 221.511 33.4233C222.594 34.0388 223.862 34.3466 225.315 34.3466C226.287 34.3466 227.168 34.2112 227.956 33.9403C228.743 33.6572 229.427 33.2448 230.005 32.7031C230.584 32.1615 231.021 31.4905 231.316 30.6903L237.558 31.392C237.164 33.0417 236.413 34.482 235.305 35.7131C234.209 36.9318 232.806 37.8797 231.095 38.5568C229.384 39.2216 227.426 39.554 225.223 39.554ZM259.294 31.2259L267.714 10.6364H273.106L261.639 39H256.967L245.758 10.6364H251.095L259.294 31.2259ZM249.415 10.6364V39H242.97V10.6364H249.415ZM269.45 39V10.6364H275.839V39H269.45ZM294.432 39.554C291.6 39.554 289.169 38.9323 287.137 37.6889C285.119 36.4455 283.561 34.7282 282.466 32.5369C281.382 30.3333 280.841 27.7973 280.841 24.929C280.841 22.0483 281.395 19.5062 282.503 17.3026C283.61 15.0866 285.174 13.3632 287.193 12.1321C289.224 10.8887 291.625 10.267 294.395 10.267C296.697 10.267 298.734 10.6918 300.507 11.5412C302.292 12.3783 303.714 13.5663 304.772 15.1051C305.831 16.6316 306.434 18.4167 306.582 20.4602H300.193C299.934 19.0937 299.319 17.955 298.346 17.044C297.386 16.1207 296.1 15.6591 294.487 15.6591C293.12 15.6591 291.92 16.0284 290.886 16.767C289.852 17.4934 289.046 18.5398 288.467 19.9062C287.901 21.2727 287.618 22.91 287.618 24.8182C287.618 26.7509 287.901 28.4129 288.467 29.804C289.033 31.1828 289.827 32.2476 290.849 32.9986C291.883 33.7372 293.096 34.1065 294.487 34.1065C295.472 34.1065 296.352 33.9219 297.128 33.5526C297.915 33.1709 298.574 32.6231 299.103 31.9091C299.633 31.1951 299.996 30.3272 300.193 29.3054H306.582C306.422 31.312 305.831 33.0909 304.809 34.642C303.788 36.1809 302.396 37.3873 300.636 38.2614C298.876 39.1231 296.807 39.554 294.432 39.554ZM328.318 39V16.0653H322.261C320.722 16.0653 319.541 16.4223 318.716 17.1364C317.891 17.8504 317.485 18.7367 317.497 19.7955C317.485 20.8542 317.873 21.7282 318.66 22.4176C319.448 23.107 320.575 23.4517 322.04 23.4517H330.423V28.3267H322.04C319.775 28.3267 317.817 27.9697 316.168 27.2557C314.518 26.5417 313.25 25.5322 312.364 24.2273C311.477 22.9223 311.034 21.3958 311.034 19.6477C311.034 17.8258 311.483 16.2438 312.382 14.902C313.293 13.5478 314.586 12.5014 316.26 11.7628C317.946 11.0118 319.947 10.6364 322.261 10.6364H334.578V39H328.318ZM310 39L317.922 24.4489H324.514L316.574 39H310ZM372.649 22.0483V27.5327H357.544V22.0483H372.649ZM359.612 10.6364V39H353.167V10.6364H359.612ZM377.025 10.6364V39H370.599V10.6364H377.025ZM391.43 39.5724C389.633 39.5724 388.014 39.2524 386.574 38.6122C385.146 37.9598 384.013 36.9995 383.176 35.7315C382.351 34.4635 381.939 32.9001 381.939 31.0412C381.939 29.4408 382.234 28.1174 382.825 27.071C383.416 26.0246 384.222 25.1875 385.244 24.5597C386.266 23.9318 387.417 23.4579 388.697 23.1378C389.99 22.8054 391.326 22.5653 392.704 22.4176C394.366 22.2453 395.714 22.0914 396.749 21.956C397.783 21.8082 398.534 21.5866 399.001 21.2912C399.481 20.9834 399.722 20.5095 399.722 19.8693V19.7585C399.722 18.3674 399.309 17.2902 398.484 16.527C397.659 15.7637 396.472 15.3821 394.92 15.3821C393.283 15.3821 391.984 15.7391 391.024 16.4531C390.076 17.1671 389.436 18.0104 389.104 18.983L382.862 18.0966C383.355 16.3731 384.167 14.9328 385.3 13.7756C386.432 12.6061 387.817 11.732 389.454 11.1534C391.092 10.5625 392.901 10.267 394.883 10.267C396.25 10.267 397.61 10.4271 398.964 10.7472C400.319 11.0672 401.556 11.5966 402.676 12.3352C403.796 13.0616 404.695 14.0526 405.372 15.3082C406.061 16.5639 406.406 18.1335 406.406 20.017V39H399.98V35.1037H399.758C399.352 35.8916 398.78 36.6302 398.041 37.3196C397.315 37.9967 396.398 38.5445 395.29 38.9631C394.194 39.3693 392.908 39.5724 391.43 39.5724ZM393.166 34.6605C394.508 34.6605 395.671 34.3958 396.656 33.8665C397.641 33.3248 398.398 32.6108 398.927 31.7244C399.469 30.8381 399.74 29.8717 399.74 28.8253V25.483C399.531 25.6553 399.174 25.8153 398.669 25.9631C398.177 26.1108 397.623 26.2401 397.007 26.3509C396.392 26.4616 395.782 26.5601 395.179 26.6463C394.576 26.7325 394.052 26.8063 393.609 26.8679C392.612 27.0033 391.72 27.2249 390.932 27.5327C390.144 27.8404 389.522 28.2713 389.067 28.8253C388.611 29.367 388.383 30.0687 388.383 30.9304C388.383 32.1615 388.833 33.0909 389.731 33.7188C390.63 34.3466 391.775 34.6605 393.166 34.6605ZM425.282 39V1.18182H439.464C442.369 1.18182 444.806 1.72348 446.776 2.80682C448.758 3.89015 450.254 5.37973 451.263 7.27557C452.285 9.15909 452.796 11.3011 452.796 13.7017C452.796 16.1269 452.285 18.2812 451.263 20.1648C450.241 22.0483 448.733 23.5317 446.739 24.6151C444.745 25.6861 442.289 26.2216 439.371 26.2216H429.972V20.5895H438.448C440.147 20.5895 441.538 20.294 442.621 19.7031C443.705 19.1122 444.505 18.2997 445.022 17.2656C445.551 16.2315 445.816 15.0436 445.816 13.7017C445.816 12.3598 445.551 11.178 445.022 10.1562C444.505 9.13447 443.698 8.34043 442.603 7.77415C441.519 7.19555 440.122 6.90625 438.411 6.90625H432.133V39H425.282ZM462.086 49.6364C461.175 49.6364 460.332 49.5625 459.556 49.4148C458.793 49.2794 458.183 49.1193 457.728 48.9347L459.279 43.7273C460.252 44.0104 461.12 44.1458 461.883 44.1335C462.646 44.1212 463.317 43.8812 463.896 43.4134C464.486 42.9579 464.985 42.1946 465.391 41.1236L465.964 39.5909L455.678 10.6364H462.769L469.306 32.0568H469.602L476.157 10.6364H483.266L471.91 42.4347C471.38 43.9366 470.679 45.223 469.805 46.294C468.931 47.3774 467.86 48.2022 466.592 48.7685C465.336 49.3471 463.834 49.6364 462.086 49.6364ZM485.821 16.1207V10.6364H510.639V16.1207H501.461V39H494.998V16.1207H485.821ZM519.597 49.6364C518.686 49.6364 517.842 49.5625 517.067 49.4148C516.304 49.2794 515.694 49.1193 515.239 48.9347L516.79 43.7273C517.762 44.0104 518.63 44.1458 519.394 44.1335C520.157 44.1212 520.828 43.8812 521.406 43.4134C521.997 42.9579 522.496 42.1946 522.902 41.1236L523.475 39.5909L513.189 10.6364H520.28L526.817 32.0568H527.112L533.668 10.6364H540.777L529.421 42.4347C528.891 43.9366 528.189 45.223 527.315 46.294C526.441 47.3774 525.37 48.2022 524.102 48.7685C522.847 49.3471 521.345 49.6364 519.597 49.6364ZM567.614 0.147726L569.941 4.46875C569.116 5.18276 568.193 5.69981 567.171 6.01988C566.149 6.33996 564.949 6.54924 563.57 6.64773C562.204 6.7339 560.579 6.79545 558.695 6.83238C556.578 6.88163 554.848 7.28172 553.506 8.03267C552.165 8.78362 551.137 9.92235 550.423 11.4489C549.709 12.9631 549.241 14.8958 549.019 17.2472H549.333C550.219 15.5114 551.463 14.188 553.063 13.277C554.664 12.366 556.541 11.9105 558.695 11.9105C561.047 11.9105 563.121 12.4399 564.918 13.4986C566.728 14.545 568.138 16.0653 569.147 18.0597C570.169 20.054 570.68 22.4669 570.68 25.2983C570.68 28.2159 570.132 30.7457 569.036 32.8878C567.941 35.0175 566.383 36.661 564.364 37.8182C562.358 38.9754 559.976 39.554 557.218 39.554C554.473 39.554 552.084 38.9569 550.053 37.7628C548.034 36.5563 546.471 34.7775 545.363 32.4261C544.267 30.0625 543.719 27.151 543.719 23.6918V21.1435C543.719 14.4711 544.963 9.49148 547.45 6.20455C549.936 2.91761 553.623 1.24337 558.511 1.18182C559.963 1.1572 561.262 1.15104 562.407 1.16335C563.564 1.17566 564.574 1.12026 565.435 0.997159C566.297 0.874053 567.023 0.590909 567.614 0.147726ZM557.255 34.1989C558.621 34.1989 559.803 33.848 560.8 33.1463C561.798 32.4323 562.561 31.4228 563.09 30.1179C563.632 28.813 563.903 27.268 563.903 25.483C563.903 23.7225 563.632 22.2268 563.09 20.9957C562.548 19.7524 561.779 18.8045 560.782 18.152C559.785 17.4995 558.597 17.1733 557.218 17.1733C556.184 17.1733 555.254 17.358 554.43 17.7273C553.605 18.0966 552.903 18.6383 552.325 19.3523C551.746 20.0663 551.303 20.9342 550.995 21.956C550.687 22.9777 550.521 24.1534 550.496 25.483C550.496 28.1544 551.1 30.2779 552.306 31.8537C553.513 33.4171 555.162 34.1989 557.255 34.1989ZM588.404 39.554C585.56 39.554 583.104 38.9631 581.036 37.7812C578.98 36.5871 577.398 34.9006 576.29 32.7216C575.182 30.5303 574.628 27.9512 574.628 24.9844C574.628 22.0668 575.182 19.5062 576.29 17.3026C577.411 15.0866 578.974 13.3632 580.981 12.1321C582.987 10.8887 585.345 10.267 588.053 10.267C589.801 10.267 591.451 10.5502 593.002 11.1165C594.565 11.6705 595.944 12.5322 597.138 13.7017C598.345 14.8712 599.293 16.3608 599.982 18.1705C600.671 19.9678 601.016 22.1098 601.016 24.5966V26.6463H577.768V22.1406H594.608C594.596 20.8603 594.319 19.7216 593.778 18.7244C593.236 17.715 592.479 16.9209 591.506 16.3423C590.546 15.7637 589.426 15.4744 588.145 15.4744C586.779 15.4744 585.579 15.8068 584.545 16.4716C583.51 17.1241 582.704 17.9858 582.126 19.0568C581.559 20.1155 581.27 21.2789 581.258 22.5469V26.4801C581.258 28.1297 581.559 29.5455 582.162 30.7273C582.766 31.8968 583.609 32.7955 584.692 33.4233C585.776 34.0388 587.044 34.3466 588.496 34.3466C589.469 34.3466 590.349 34.2112 591.137 33.9403C591.925 33.6572 592.608 33.2448 593.187 32.7031C593.765 32.1615 594.202 31.4905 594.498 30.6903L600.739 31.392C600.345 33.0417 599.594 34.482 598.486 35.7131C597.391 36.9318 595.987 37.8797 594.276 38.5568C592.565 39.2216 590.608 39.554 588.404 39.554Z" fill="white"/>
</svg>
